<svg width="10" height="10" viewBox="0 0 10 10" fill="none" xmlns="http://www.w3.org/2000/svg">
<path d="M9.60938 6.875C9.82512 6.875 10 6.70012 10 6.48438V2.34375C10 1.48219 9.29906 0.78125 8.4375 0.78125H7.92969V0.390625C7.92969 0.174883 7.7548 0 7.53906 0C7.32332 0 7.14844 0.174883 7.14844 0.390625V0.78125H5.37109V0.390625C5.37109 0.174883 5.19621 0 4.98047 0C4.76473 0 4.58984 0.174883 4.58984 0.390625V0.78125H2.83203V0.390625C2.83203 0.174883 2.65715 0 2.44141 0C2.22566 0 2.05078 0.174883 2.05078 0.390625V0.78125H1.5625C0.700938 0.78125 0 1.48219 0 2.34375V8.4375C0 9.29906 0.700938 10 1.5625 10H8.4375C9.29906 10 10 9.29906 10 8.4375C10 8.22176 9.82512 8.04688 9.60938 8.04688C9.39363 8.04688 9.21875 8.22176 9.21875 8.4375C9.21875 8.86828 8.86828 9.21875 8.4375 9.21875H1.5625C1.13172 9.21875 0.78125 8.86828 0.78125 8.4375V2.34375C0.78125 1.91297 1.13172 1.5625 1.5625 1.5625H2.05078V1.95312C2.05078 2.16887 2.22566 2.34375 2.44141 2.34375C2.65715 2.34375 2.83203 2.16887 2.83203 1.95312V1.5625H4.58984V1.95312C4.58984 2.16887 4.76473 2.34375 4.98047 2.34375C5.19621 2.34375 5.37109 2.16887 5.37109 1.95312V1.5625H7.14844V1.95312C7.14844 2.16887 7.32332 2.34375 7.53906 2.34375C7.7548 2.34375 7.92969 2.16887 7.92969 1.95312V1.5625H8.4375C8.86828 1.5625 9.21875 1.91297 9.21875 2.34375V6.48438C9.21875 6.70012 9.39363 6.875 9.60938 6.875Z" fill="#BBBBBB"/>
</svg>
