<svg width="16" height="17" viewBox="0 0 16 17" fill="none" xmlns="http://www.w3.org/2000/svg">
<path d="M15.3927 0H-0.392734C-0.728056 0 -0.999878 0.271822 -0.999878 0.607144V3.64279C-1.00002 3.81504 -0.926951 3.97925 -0.798919 4.09451L3.74729 8.18605C4.59016 8.94462 5.07146 10.0253 5.07146 11.1592V16.3926C5.07131 16.7279 5.34299 16.9998 5.67832 17C5.77262 17 5.86565 16.9781 5.95 16.936L9.59279 15.1146C9.79862 15.0117 9.92865 14.8013 9.92854 14.5712V11.1595C9.92854 10.0254 10.41 8.94459 11.253 8.18601L15.7989 4.09572C15.9273 3.98021 16.0003 3.81547 15.9999 3.64279V0.607144C15.9998 0.271822 15.728 0 15.3927 0Z" fill="white"/>
</svg>
