<svg width="13" height="13" viewBox="0 0 13 13" fill="none" xmlns="http://www.w3.org/2000/svg">
<path d="M6.5 0C2.90715 0 0 2.9074 0 6.5C0 10.0928 2.9074 13 6.5 13C10.0928 13 13 10.0926 13 6.5C13 2.90715 10.0926 0 6.5 0ZM6.5 11.9844C3.46854 11.9844 1.01562 9.53126 1.01562 6.5C1.01562 3.46854 3.46874 1.01562 6.5 1.01562C9.53146 1.01562 11.9844 3.46874 11.9844 6.5C11.9844 9.53146 9.53123 11.9844 6.5 11.9844Z" fill="white"/>
<path d="M6.5 5.44189C6.21954 5.44189 5.99219 5.66924 5.99219 5.94971V9.21985C5.99219 9.50032 6.21954 9.72767 6.5 9.72767C6.78046 9.72767 7.00781 9.5003 7.00781 9.21983V5.94971C7.00781 5.66924 6.78046 5.44189 6.5 5.44189Z" fill="white"/>
<path d="M6.5 4.82007C6.87862 4.82007 7.18555 4.51314 7.18555 4.13452C7.18555 3.7559 6.87862 3.44897 6.5 3.44897C6.12138 3.44897 5.81445 3.7559 5.81445 4.13452C5.81445 4.51314 6.12138 4.82007 6.5 4.82007Z" fill="white"/>
</svg>
