<svg width="14" height="13" viewBox="0 0 14 13" fill="none" xmlns="http://www.w3.org/2000/svg">
<path d="M12.7027 5.98203C12.4158 5.98203 12.1848 6.21309 12.1848 6.5C12.1848 9.35898 9.85898 11.6848 7 11.6848C4.14102 11.6848 1.81523 9.35898 1.81523 6.5C1.81523 3.64102 4.14102 1.31523 7 1.31523C8.56152 1.31523 10.0088 2.00332 10.9889 3.18652H9.19883C8.91191 3.18652 8.68086 3.41758 8.68086 3.70449C8.68086 3.99141 8.91191 4.22246 9.19883 4.22246H12.1086C12.3955 4.22246 12.6266 3.99141 12.6266 3.70449V0.797266C12.6266 0.510352 12.3955 0.279297 12.1086 0.279297C11.8217 0.279297 11.5906 0.510352 11.5906 0.797266V2.29531C10.4201 1.01816 8.77227 0.279297 7 0.279297C3.56973 0.279297 0.779297 3.06973 0.779297 6.5C0.779297 9.93027 3.56973 12.7207 7 12.7207C10.4303 12.7207 13.2207 9.93027 13.2207 6.5C13.2207 6.21309 12.9896 5.98203 12.7027 5.98203Z" fill="white"/>
</svg>
