<svg width="14" height="14" viewBox="0 0 14 14" fill="none" xmlns="http://www.w3.org/2000/svg">
<g clip-path="url(#clip0)">
<path d="M12.4468 1.5517C12.2468 1.34885 11.9211 1.35171 11.7182 1.5517L9.8898 3.38014C7.62425 2.35164 5.20727 2.60305 2.90172 4.10866C1.18469 5.22859 0.141908 6.63706 0.0990543 6.69705C-0.0380791 6.88561 -0.0323652 7.14274 0.113339 7.32558C1.09041 8.5255 2.1132 9.45972 3.15884 10.1111L1.55038 11.7196C1.3504 11.9195 1.3504 12.2452 1.55038 12.4481C1.65038 12.5481 1.78179 12.5995 1.91321 12.5995C2.04463 12.5995 2.17605 12.5481 2.27605 12.4481L12.4468 2.28022C12.6468 2.08023 12.6468 1.75454 12.4468 1.5517ZM5.72724 7.54271C5.65296 7.37415 5.61581 7.19131 5.61581 6.99989C5.61581 6.63134 5.75866 6.2828 6.0215 6.01996C6.4329 5.60856 7.04143 5.51142 7.54425 5.72569L5.72724 7.54271ZM8.3042 4.9686C7.36998 4.36864 6.11007 4.47721 5.29584 5.29144C4.83873 5.74855 4.59017 6.35422 4.59017 6.99703C4.59017 7.46557 4.72445 7.91411 4.973 8.2998L3.91308 9.35973C2.98457 8.82262 2.07035 8.02839 1.18184 6.99132C1.56181 6.54564 2.36461 5.6857 3.46454 4.9686C5.36726 3.72869 7.26142 3.46014 9.107 4.1658L8.3042 4.9686Z" fill="white"/>
<path d="M13.8864 6.67411C13.1807 5.8056 12.4493 5.07422 11.7065 4.49426C11.4808 4.31999 11.158 4.35999 10.9808 4.58283C10.8066 4.80567 10.8466 5.1285 11.0694 5.30563C11.6579 5.7656 12.2465 6.33699 12.8179 7.00551C12.4807 7.39977 11.8236 8.10829 10.9323 8.75682C9.21525 10.0053 7.48109 10.4567 5.78121 10.0967C5.50408 10.0367 5.22982 10.2167 5.17268 10.4938C5.11268 10.771 5.29267 11.0452 5.56979 11.1024C6.01262 11.1966 6.4583 11.2424 6.90684 11.2424C7.58108 11.2424 8.26103 11.1367 8.93813 10.9252C9.82664 10.6481 10.7094 10.191 11.5637 9.56819C13.0036 8.51398 13.8635 7.3512 13.9006 7.30264C14.0378 7.11408 14.0321 6.85695 13.8864 6.67411Z" fill="white"/>
</g>
<defs>
<clipPath id="clip0">
<rect width="14" height="14" fill="white"/>
</clipPath>
</defs>
</svg>
