<svg width="14" height="14" viewBox="0 0 14 14" fill="none" xmlns="http://www.w3.org/2000/svg">
<g clip-path="url(#clip0)">
<path d="M12.3958 13.4075H1.6042C0.719269 13.4075 0 12.6884 0 11.8034V2.17842C0 1.29349 0.719269 0.574219 1.6042 0.574219H12.3958C13.2807 0.574219 14 1.29349 14 2.17842V11.8034C14 12.6884 13.2807 13.4075 12.3958 13.4075ZM1.6042 1.44922C1.20227 1.44922 0.875 1.77649 0.875 2.17842V11.8034C0.875 12.2054 1.20227 12.5325 1.6042 12.5325H12.3958C12.7977 12.5325 13.125 12.2054 13.125 11.8034V2.17842C13.125 1.77649 12.7977 1.44922 12.3958 1.44922H1.6042Z" fill="white"/>
<path d="M13.5625 4.94922H0.4375C0.195999 4.94922 0 4.75322 0 4.51172C0 4.27022 0.195999 4.07422 0.4375 4.07422H13.5625C13.804 4.07422 14 4.27022 14 4.51172C14 4.75322 13.804 4.94922 13.5625 4.94922Z" fill="white"/>
<path d="M13.5625 7.86597H0.4375C0.195999 7.86597 0 7.66997 0 7.42847C0 7.18697 0.195999 6.99097 0.4375 6.99097H13.5625C13.804 6.99097 14 7.18697 14 7.42847C14 7.66997 13.804 7.86597 13.5625 7.86597Z" fill="white"/>
<path d="M13.5625 10.7825H0.4375C0.195999 10.7825 0 10.5865 0 10.345C0 10.1035 0.195999 9.90747 0.4375 9.90747H13.5625C13.804 9.90747 14 10.1035 14 10.345C14 10.5865 13.804 10.7825 13.5625 10.7825Z" fill="white"/>
<path d="M3.64575 13.4075C3.40425 13.4075 3.20825 13.2115 3.20825 12.97V4.51172C3.20825 4.27022 3.40425 4.07422 3.64575 4.07422C3.88725 4.07422 4.08325 4.27022 4.08325 4.51172V12.97C4.08325 13.2115 3.88725 13.4075 3.64575 13.4075Z" fill="white"/>
<path d="M7 13.4075C6.7585 13.4075 6.5625 13.2115 6.5625 12.97V4.51172C6.5625 4.27022 6.7585 4.07422 7 4.07422C7.2415 4.07422 7.4375 4.27022 7.4375 4.51172V12.97C7.4375 13.2115 7.2415 13.4075 7 13.4075Z" fill="white"/>
<path d="M10.3542 13.4075C10.1127 13.4075 9.91675 13.2115 9.91675 12.97V4.51172C9.91675 4.27022 10.1127 4.07422 10.3542 4.07422C10.5957 4.07422 10.7917 4.27022 10.7917 4.51172V12.97C10.7917 13.2115 10.5957 13.4075 10.3542 13.4075Z" fill="white"/>
</g>
<defs>
<clipPath id="clip0">
<rect width="14" height="14" fill="white"/>
</clipPath>
</defs>
</svg>
